<svg width="52" height="72" viewBox="0 0 52 72" fill="none" xmlns="http://www.w3.org/2000/svg">
<path d="M0 0H52V72H0V0Z" fill="#E71316"/>
<path d="M33.7348 40.877C33.3449 40.9921 32.7724 41.005 32.1587 40.916C31.5 40.8205 30.828 40.6191 30.1676 40.3224C31.3453 40.151 32.2589 40.2038 33.0403 40.4807C33.2255 40.5463 33.5296 40.7217 33.7348 40.877ZM27.1641 39.7967C27.1162 39.8098 27.069 39.8221 27.022 39.8351C26.7051 39.9214 26.3968 40.0055 26.0997 40.0804L25.6991 40.182C24.8932 40.3859 24.0691 40.5942 23.2553 40.8423C23.5646 40.0965 23.852 39.3424 24.1333 38.6051C24.3416 38.0594 24.5544 37.5018 24.7744 36.9515C24.886 37.1358 25.0024 37.3202 25.1236 37.5051C25.6758 38.3461 26.3699 39.1236 27.1641 39.7967ZM25.1141 31.3861C25.1664 32.3064 24.9678 33.1918 24.6765 34.0411C24.3177 32.9909 24.1505 31.8311 24.5991 30.8948C24.7141 30.6548 24.8084 30.5265 24.8695 30.4595C24.9639 30.6053 25.088 30.9314 25.1141 31.3861ZM20.9067 43.0443C20.7051 43.405 20.4994 43.7426 20.2885 44.0614C19.7795 44.8284 18.9471 45.6497 18.5195 45.6497C18.4774 45.6497 18.4265 45.6429 18.3521 45.5643C18.3042 45.5141 18.2965 45.4781 18.2988 45.429C18.3132 45.147 18.6869 44.6447 19.2282 44.179C19.7195 43.7566 20.2748 43.381 20.9067 43.0443ZM35.0964 40.9169C35.0311 39.9775 33.4498 39.3749 33.4342 39.3693C32.8229 39.1526 32.1588 39.0473 31.4041 39.0473C30.5962 39.0473 29.7251 39.1642 28.6065 39.4255C27.6111 38.7199 26.7513 37.8366 26.1089 36.8586C25.8252 36.4266 25.5702 35.9953 25.3479 35.574C25.8906 34.2763 26.3793 32.881 26.2905 31.3183C26.2189 30.0653 25.6539 29.2236 24.8855 29.2236C24.3584 29.2236 23.9045 29.614 23.5355 30.385C22.8772 31.759 23.0502 33.517 24.0496 35.6147C23.6896 36.4601 23.3552 37.3365 23.0316 38.1849C22.6288 39.2398 22.2139 40.3282 21.7462 41.3636C20.4346 41.8826 19.3571 42.5119 18.4592 43.2846C17.8709 43.7898 17.1617 44.5622 17.1213 45.3686C17.1015 45.7483 17.2317 46.0966 17.4963 46.3756C17.7774 46.6718 18.1306 46.8278 18.5189 46.8283C19.8015 46.8283 21.0359 45.0662 21.27 44.7127C21.7413 44.0023 22.1824 43.2099 22.6147 42.2959C23.7033 41.9025 24.8635 41.6088 25.988 41.325L26.3907 41.2226C26.6934 41.1457 27.008 41.0606 27.3308 40.9722C27.6723 40.8799 28.0236 40.7842 28.3807 40.6932C29.5354 41.4275 30.7771 41.9065 31.988 42.0822C33.008 42.2306 33.9139 42.1446 34.5271 41.8249C35.0788 41.5375 35.1092 41.0941 35.0964 40.9169ZM37.5803 48.9942C37.5803 50.7146 36.0641 50.8206 35.7582 50.8241H16.1958C14.4817 50.8241 14.3785 49.2974 14.3753 48.9942L14.375 23.0051C14.375 21.2831 15.8941 21.1787 16.1956 21.1753H29.4104L29.4174 21.1822V26.3392C29.4174 27.3741 30.0431 29.3335 32.4126 29.3335H37.5362L37.5802 29.3774L37.5803 48.9942ZM36.3657 28.1581H32.4135C30.6999 28.1581 30.5962 26.6398 30.5939 26.3393V22.3625L36.3657 28.1581ZM38.7557 48.9942V28.8926L30.5939 20.6968V20.6587H30.5548L29.8993 20H16.1959C15.1596 20 13.2 20.6283 13.2 23.0057V48.9948C13.2 50.0342 13.8263 52 16.1959 52H35.76C36.7961 51.9998 38.7557 51.3714 38.7557 48.9942Z" fill="white"/>
</svg>
