<svg width="28" height="34" viewBox="0 0 28 34" fill="none" xmlns="http://www.w3.org/2000/svg">
<g clip-path="url(#clip0_7354_3541)">
<mask id="mask0_7354_3541" style="mask-type:luminance" maskUnits="userSpaceOnUse" x="0" y="-1" width="28" height="35">
<path d="M27.4667 -0.0664062H0V33.9336H27.4667V-0.0664062Z" fill="white"/>
</mask>
<g mask="url(#mask0_7354_3541)">
<path d="M24.8667 11.0667H18.9333C18.2438 11.0667 17.5825 10.7927 17.0949 10.3051C16.6073 9.81755 16.3333 9.15623 16.3333 8.46667V2.6C16.3333 1.91044 16.0594 1.24912 15.5718 0.761522C15.0842 0.273928 14.4229 0 13.7333 0H2.6C1.91044 0 1.24912 0.273928 0.761522 0.761522C0.273928 1.24912 0 1.91044 0 2.6V31.4C0 32.0896 0.273928 32.7509 0.761522 33.2385C1.24912 33.7261 1.91044 34 2.6 34H24.8667C25.5562 34 26.2176 33.7261 26.7051 33.2385C27.1927 32.7509 27.4667 32.0896 27.4667 31.4V13.6667C27.4498 12.9824 27.1704 12.3309 26.6864 11.8469C26.2025 11.3629 25.5509 11.0836 24.8667 11.0667Z" fill="#E71316"/>
</g>
<mask id="mask1_7354_3541" style="mask-type:luminance" maskUnits="userSpaceOnUse" x="0" y="-1" width="28" height="35">
<path d="M27.4667 -0.0664062H0V33.9336H27.4667V-0.0664062Z" fill="white"/>
</mask>
<g mask="url(#mask1_7354_3541)">
<path d="M20.1334 8.4666H26.1334L18.9334 1.2666V7.19993C18.9203 7.36395 18.9418 7.5289 18.9965 7.68407C19.0513 7.83924 19.1381 7.98116 19.2512 8.10062C19.3644 8.22007 19.5014 8.31438 19.6534 8.37744C19.8054 8.44049 19.9689 8.47087 20.1334 8.4666Z" fill="#E71316"/>
</g>
<mask id="mask2_7354_3541" style="mask-type:luminance" maskUnits="userSpaceOnUse" x="0" y="-1" width="28" height="35">
<path d="M27.4667 -0.0664062H0V33.9336H27.4667V-0.0664062Z" fill="white"/>
</mask>
<g mask="url(#mask2_7354_3541)">
<path d="M22.1997 28.2667H5.19974C4.89916 28.2667 4.61089 28.1473 4.39835 27.9347C4.18581 27.7222 4.06641 27.4339 4.06641 27.1333C4.06641 26.8328 4.18581 26.5445 4.39835 26.3319C4.61089 26.1194 4.89916 26 5.19974 26H22.1997C22.4977 26.0084 22.7811 26.1305 22.9918 26.3412C23.2026 26.552 23.3247 26.8354 23.3331 27.1333C23.334 27.2824 23.3052 27.4302 23.2486 27.5681C23.192 27.706 23.1085 27.8313 23.0031 27.9367C22.8977 28.0421 22.7724 28.1256 22.6345 28.1822C22.4966 28.2388 22.3488 28.2676 22.1997 28.2667Z" fill="white"/>
</g>
<mask id="mask3_7354_3541" style="mask-type:luminance" maskUnits="userSpaceOnUse" x="0" y="-1" width="28" height="35">
<path d="M27.4667 -0.0664062H0V33.9336H27.4667V-0.0664062Z" fill="white"/>
</mask>
<g mask="url(#mask3_7354_3541)">
<path d="M22.1997 22.9337H5.19974C4.89916 22.9337 4.61089 22.8143 4.39835 22.6017C4.18581 22.3892 4.06641 22.1009 4.06641 21.8003C4.06641 21.4997 4.18581 21.2115 4.39835 20.9989C4.61089 20.7864 4.89916 20.667 5.19974 20.667H22.1997C22.4977 20.6754 22.7811 20.7975 22.9918 21.0082C23.2026 21.219 23.3247 21.5024 23.3331 21.8003C23.334 21.9494 23.3052 22.0972 23.2486 22.2351C23.192 22.373 23.1085 22.4983 23.0031 22.6037C22.8977 22.7091 22.7724 22.7926 22.6345 22.8492C22.4966 22.9058 22.3488 22.9345 22.1997 22.9337Z" fill="white"/>
</g>
<mask id="mask4_7354_3541" style="mask-type:luminance" maskUnits="userSpaceOnUse" x="0" y="-1" width="28" height="35">
<path d="M27.4667 -0.0664062H0V33.9336H27.4667V-0.0664062Z" fill="white"/>
</mask>
<g mask="url(#mask4_7354_3541)">
<path d="M22.1997 17.6007H5.19974C4.89916 17.6007 4.61089 17.4812 4.39835 17.2687C4.18581 17.0562 4.06641 16.7679 4.06641 16.4673C4.06641 16.1667 4.18581 15.8785 4.39835 15.6659C4.61089 15.4534 4.89916 15.334 5.19974 15.334H22.1997C22.4977 15.3424 22.7811 15.4645 22.9918 15.6752C23.2026 15.886 23.3247 16.1694 23.3331 16.4673C23.3397 16.6179 23.3149 16.7682 23.2603 16.9087C23.2057 17.0492 23.1224 17.1768 23.0159 17.2834C22.9093 17.39 22.7817 17.4733 22.6412 17.5279C22.5007 17.5825 22.3503 17.6073 22.1997 17.6007Z" fill="white"/>
</g>
</g>
<defs>
<clipPath id="clip0_7354_3541">
<rect width="27.4667" height="34" fill="white"/>
</clipPath>
</defs>
</svg>

