<svg width="40" height="40" viewBox="0 0 40 40" fill="none" xmlns="http://www.w3.org/2000/svg">
<mask id="mask0_7354_4850" style="mask-type:luminance" maskUnits="userSpaceOnUse" x="0" y="0" width="40" height="40">
<path d="M0 3.8147e-06H40V40H0V3.8147e-06Z" fill="white"/>
</mask>
<g mask="url(#mask0_7354_4850)">
<path fill-rule="evenodd" clip-rule="evenodd" d="M33.9833 6.28613H12.3164C11.7152 6.28613 11.2227 6.77863 11.2227 7.37988V8.94238C11.2227 9.54363 11.7152 10.0361 12.3164 10.0361H33.9833C34.5852 10.0361 35.077 9.54363 35.077 8.94238V7.37988C35.077 6.77863 34.5852 6.28613 33.9833 6.28613Z" fill="#E71316"/>
<path fill-rule="evenodd" clip-rule="evenodd" d="M7.62953 6.28613H6.06641C5.46453 6.28613 4.97266 6.77863 4.97266 7.37988V8.94238C4.97266 9.54363 5.46453 10.0361 6.06641 10.0361H7.62953C8.23078 10.0361 8.72328 9.54363 8.72328 8.94238V7.37988C8.72328 6.77863 8.23078 6.28613 7.62953 6.28613Z" fill="#E71316"/>
<path fill-rule="evenodd" clip-rule="evenodd" d="M33.9833 14.1816H12.3164C11.7152 14.1816 11.2227 14.6741 11.2227 15.2754V16.8379C11.2227 17.4391 11.7152 17.9316 12.3164 17.9316H33.9833C34.5852 17.9316 35.077 17.4391 35.077 16.8379V15.2754C35.077 14.6741 34.5852 14.1816 33.9833 14.1816Z" fill="#E71316"/>
<path fill-rule="evenodd" clip-rule="evenodd" d="M7.62953 14.1816H6.06641C5.46453 14.1816 4.97266 14.6741 4.97266 15.2754V16.8379C4.97266 17.4391 5.46453 17.9316 6.06641 17.9316H7.62953C8.23078 17.9316 8.72328 17.4391 8.72328 16.8379V15.2754C8.72328 14.6741 8.23078 14.1816 7.62953 14.1816Z" fill="#E71316"/>
<path fill-rule="evenodd" clip-rule="evenodd" d="M33.9833 22.0771H12.3164C11.7152 22.0771 11.2227 22.5696 11.2227 23.1709V24.7334C11.2227 25.3353 11.7152 25.8271 12.3164 25.8271H33.9833C34.5852 25.8271 35.077 25.3353 35.077 24.7334V23.1709C35.077 22.5696 34.5852 22.0771 33.9833 22.0771Z" fill="#E71316"/>
<path fill-rule="evenodd" clip-rule="evenodd" d="M7.62953 22.0771H6.06641C5.46453 22.0771 4.97266 22.5696 4.97266 23.1709V24.7334C4.97266 25.3353 5.46453 25.8271 6.06641 25.8271H7.62953C8.23078 25.8271 8.72328 25.3353 8.72328 24.7334V23.1709C8.72328 22.5696 8.23078 22.0771 7.62953 22.0771Z" fill="#E71316"/>
<path fill-rule="evenodd" clip-rule="evenodd" d="M33.9833 29.9736H12.3164C11.7152 29.9736 11.2227 30.4661 11.2227 31.0674V32.6299C11.2227 33.2311 11.7152 33.7236 12.3164 33.7236H33.9833C34.5852 33.7236 35.077 33.2311 35.077 32.6299V31.0674C35.077 30.4661 34.5852 29.9736 33.9833 29.9736Z" fill="#E71316"/>
<path fill-rule="evenodd" clip-rule="evenodd" d="M7.62953 29.9736H6.06641C5.46453 29.9736 4.97266 30.4661 4.97266 31.0674V32.6299C4.97266 33.2311 5.46453 33.7236 6.06641 33.7236H7.62953C8.23078 33.7236 8.72328 33.2311 8.72328 32.6299V31.0674C8.72328 30.4661 8.23078 29.9736 7.62953 29.9736Z" fill="#E71316"/>
</g>
</svg>
