<svg width="290" height="290" viewBox="0 0 290 290" fill="none" xmlns="http://www.w3.org/2000/svg">
<path d="M145 0C176.941 3.80896e-07 207.989 10.5468 233.321 30.0026C258.653 49.4584 276.852 76.7343 285.092 107.594C293.332 138.455 291.152 171.172 278.889 200.666C266.627 230.16 244.969 254.779 217.279 270.701C189.589 286.623 157.416 292.956 125.758 288.718C94.0989 284.479 64.7256 269.905 42.1993 247.26C19.6731 224.614 5.25459 195.164 1.18292 163.484C-2.88876 131.803 3.61428 99.6643 19.6821 72.0587L39.733 83.7293C26.236 106.918 20.7734 133.914 24.1937 160.526C27.6139 187.138 39.7254 211.876 58.6475 230.898C77.5695 249.92 102.243 262.162 128.836 265.723C155.43 269.283 182.455 263.963 205.714 250.589C228.974 237.214 247.167 216.534 257.467 191.759C267.767 166.984 269.599 139.502 262.677 113.579C255.756 87.6568 240.469 64.745 219.19 48.4022C197.911 32.0593 171.831 23.2 145 23.2V0Z" fill="#262262"/>
<path d="M20.8302 70.1211C33.5288 49.0632 51.3743 31.5808 72.6887 19.3176C94.0031 7.05435 118.086 0.413241 142.673 0.0186677L143.046 23.2157C122.392 23.5471 102.163 29.1257 84.2585 39.4268C66.3544 49.7279 51.3642 64.4131 40.6973 82.1017L20.8302 70.1211Z" fill="#EA7600"/>
</svg>
