<svg width="290" height="290" viewBox="0 0 290 290" fill="none" xmlns="http://www.w3.org/2000/svg">
<path d="M145 0C166.989 2.62222e-07 188.691 5.00128 208.462 14.6254C228.234 24.2496 245.557 38.2445 259.122 55.5514C272.688 72.8582 282.139 93.0236 286.761 114.522C291.383 136.02 291.055 158.288 285.801 179.641C280.548 200.993 270.507 220.872 256.438 237.771C242.369 254.671 224.641 268.15 204.595 277.187C184.548 286.225 162.709 290.585 140.729 289.937C118.749 289.289 97.2044 283.651 77.7249 273.449L88.4889 252.897C104.852 261.467 122.949 266.203 141.412 266.747C159.875 267.291 178.221 263.629 195.059 256.037C211.898 248.446 226.79 237.124 238.608 222.928C250.426 208.732 258.86 192.034 263.273 174.098C267.686 156.162 267.961 137.457 264.079 119.398C260.196 101.34 252.257 84.4009 240.863 69.8632C229.468 55.3254 214.916 43.5697 198.308 35.4854C181.7 27.4011 163.471 23.2 145 23.2V0Z" fill="#262262"/>
<path d="M74.9757 271.971C42.0281 253.8 17.4339 223.534 6.38853 187.566C-4.65686 151.598 -1.2884 112.745 15.7823 79.214L36.4572 89.7398C22.1178 117.905 19.2882 150.542 28.5664 180.755C37.8445 210.969 58.5036 236.392 86.1796 251.655L74.9757 271.971Z" fill="#F1B434"/>
<path d="M16.6982 77.4452C34.6149 43.4175 65.3151 17.9008 102.045 6.5085L108.918 28.6671C78.0647 38.2367 52.2765 59.6707 37.2265 88.254L16.6982 77.4452Z" fill="#9BD3DD"/>
<path d="M105.484 5.48843C117.378 2.11934 129.655 0.285229 142.015 0.0307289L142.493 23.2258C132.11 23.4396 121.798 24.9803 111.806 27.8103L105.484 5.48843Z" fill="#EA7600"/>
</svg>
