<svg width="40" height="40" viewBox="0 0 40 40" fill="none" xmlns="http://www.w3.org/2000/svg">
<mask id="mask0_7354_2027" style="mask-type:luminance" maskUnits="userSpaceOnUse" x="0" y="0" width="40" height="40">
<path d="M0 3.8147e-06H40V40H0V3.8147e-06Z" fill="white"/>
</mask>
<g mask="url(#mask0_7354_2027)">
<path d="M29.6849 7.85789C29.6524 7.57352 29.5037 7.31539 29.2712 7.14727C26.5862 5.19664 23.2824 4.12227 19.9699 4.12227C11.2405 4.12227 4.13867 11.2248 4.13867 19.9535C4.13867 28.1516 10.2843 34.9254 18.4337 35.7091C18.4662 35.7116 18.4987 35.7129 18.5305 35.7129C18.7818 35.7129 19.0255 35.6204 19.2137 35.4491C19.4262 35.2573 19.5462 34.9841 19.5462 34.6973V20.641C19.5462 19.8791 19.8124 19.5404 20.0362 19.2716C20.2593 19.0035 29.4355 8.64164 29.4355 8.64164C29.6249 8.42789 29.7155 8.14289 29.6849 7.85789Z" fill="#E71316"/>
<path d="M32.693 10.3546C32.5005 10.1496 32.233 10.034 31.9517 10.034H31.9367C31.6511 10.0384 31.3799 10.1627 31.1911 10.3771L23.4636 19.1165C23.2849 19.3177 23.1936 19.5821 23.2111 19.8515C23.2274 20.1209 23.3505 20.3721 23.553 20.5502L32.9949 28.8765C33.1824 29.0409 33.4217 29.1309 33.6674 29.1309C33.7161 29.1309 33.7661 29.1271 33.8149 29.1196C34.1105 29.0759 34.3717 28.9052 34.5292 28.6509C36.0124 26.2715 36.7961 23.519 36.7961 20.6965C36.7961 16.9021 35.3005 13.1327 32.693 10.3546Z" fill="#E71316"/>
<path d="M23.3664 23.5412C22.9283 23.1887 22.572 23.2643 22.4389 23.3237C22.0745 23.4875 22.0039 23.8112 22.0039 24.21L22.007 34.7256C22.007 35.0106 22.127 35.2818 22.3377 35.475C22.5252 35.6468 22.7708 35.7412 23.0227 35.7412C23.0527 35.7412 23.0827 35.74 23.112 35.7375C26.1302 35.4725 28.9614 34.3162 31.3002 32.395C31.5308 32.2056 31.6658 31.925 31.6714 31.6275C31.6764 31.33 31.5514 31.045 31.3277 30.8481L23.3664 23.5412Z" fill="#E71316"/>
</g>
</svg>
