<svg width="32" height="32" viewBox="0 0 32 32" fill="none" xmlns="http://www.w3.org/2000/svg">
<g clip-path="url(#clip0_3781_12165)">
<mask id="mask0_3781_12165" style="mask-type:luminance" maskUnits="userSpaceOnUse" x="0" y="0" width="32" height="32">
<path d="M0 1.90735e-06H32V32H0V1.90735e-06Z" fill="white"/>
</mask>
<g mask="url(#mask0_3781_12165)">
<path d="M11.2109 6.08301H20.7949C21.3449 6.08301 21.7949 5.63301 21.7949 5.08301V3.24951C21.7949 2.69951 21.3449 2.24951 20.7949 2.24951H20.3984H19.6279C19.3524 2.24951 19.1279 2.03551 19.1279 1.77301V1.20801C19.1279 0.658008 18.6779 0.208008 18.1279 0.208008H13.8779C13.3279 0.208008 12.8779 0.658008 12.8779 1.20801V1.78951C12.8689 2.04351 12.6504 2.24951 12.3819 2.24951H11.6114H11.2109C10.6609 2.24951 10.2109 2.69951 10.2109 3.24951V5.08301C10.2109 5.63301 10.6609 6.08301 11.2109 6.08301Z" fill="white"/>
<path d="M21.9773 12.5023H10.0398C9.55634 12.5023 9.16484 12.1103 9.16484 11.6273C9.16484 11.1443 9.55634 10.7523 10.0398 10.7523H21.9773C22.4608 10.7523 22.8523 11.1443 22.8523 11.6273C22.8523 12.1103 22.4608 12.5023 21.9773 12.5023ZM9.16484 15.5898C9.16484 15.1063 9.55634 14.7148 10.0398 14.7148H19.6993C20.1828 14.7148 20.5743 15.1063 20.5743 15.5898C20.5743 16.0728 20.1828 16.4648 19.6993 16.4648H10.0398C9.55634 16.4648 9.16484 16.0728 9.16484 15.5898ZM21.2338 20.4268H10.0398C9.55634 20.4268 9.16484 20.0353 9.16484 19.5518C9.16484 19.0688 9.55634 18.6768 10.0398 18.6768H21.2338C21.7168 18.6768 22.1088 19.0688 22.1088 19.5518C22.1088 20.0353 21.7168 20.4268 21.2338 20.4268ZM19.6993 24.3898H10.0398C9.55634 24.3898 9.16484 23.9978 9.16484 23.5148C9.16484 23.0313 9.55634 22.6398 10.0398 22.6398H19.6993C20.1828 22.6398 20.5743 23.0313 20.5743 23.5148C20.5743 23.9978 20.1828 24.3898 19.6993 24.3898ZM24.5168 3.46878H23.2933V5.08328C23.2933 6.46178 22.1718 7.58328 20.7933 7.58328H11.2093C9.83084 7.58328 8.70934 6.46178 8.70934 5.08328V3.46878H7.48584C6.58034 3.46878 5.83984 4.20978 5.83984 5.11478V27.4673C5.83984 28.3728 6.58034 29.1133 7.48584 29.1133H24.5168C25.4223 29.1133 26.1628 28.3728 26.1628 27.4673V5.11478C26.1628 4.20978 25.4223 3.46878 24.5168 3.46878Z" fill="white"/>
</g>
</g>
<defs>
<clipPath id="clip0_3781_12165">
<rect width="32" height="32" fill="white"/>
</clipPath>
</defs>
</svg>
