<svg width="32" height="32" viewBox="0 0 32 32" fill="none" xmlns="http://www.w3.org/2000/svg">
<mask id="mask0_3781_12109" style="mask-type:luminance" maskUnits="userSpaceOnUse" x="0" y="0" width="32" height="32">
<path d="M0 1.90735e-06H32V32H0V1.90735e-06Z" fill="white"/>
</mask>
<g mask="url(#mask0_3781_12109)">
<path d="M20.5666 28.4144L20.4936 28.4014C19.3361 28.1959 17.9546 27.6534 17.9446 26.2264C17.9406 25.9419 17.9396 25.7389 17.9386 25.5934H10.9056V26.2304C10.9056 27.7714 9.31758 28.2564 8.34108 28.4129C8.00208 28.4684 7.86458 28.6974 7.88008 28.8864C7.89508 29.0739 8.05858 29.2634 8.38958 29.2634H20.5091C20.8401 29.2634 21.0056 29.0769 21.0231 28.8929C21.0411 28.7019 20.9071 28.4794 20.5666 28.4144Z" fill="white"/>
<path d="M21.7885 3.20402C17.597 3.20402 14.1875 5.67352 14.1875 8.70952C14.1875 9.92052 14.728 11.072 15.75 12.041C16.1095 12.381 16.211 12.477 15.1515 15.249C18.4795 13.808 18.653 13.808 18.8205 13.808H18.9245L19.0315 13.837C19.918 14.0895 20.8455 14.217 21.7885 14.217C25.9795 14.217 29.3885 11.7465 29.3885 8.70952C29.3885 5.67352 25.9795 3.20402 21.7885 3.20402Z" fill="white"/>
<path d="M23.627 20.7708C23.627 21.0048 23.4355 21.1968 23.201 21.1968H5.66597C5.43147 21.1968 5.24047 21.0048 5.24047 20.7708V10.8893C5.24047 10.6553 5.43147 10.4638 5.66597 10.4638H12.9815C12.791 9.89331 12.6875 9.30431 12.6875 8.70931C12.6875 8.50381 12.705 8.30181 12.7275 8.10081H5.10947C3.93847 8.10081 2.98047 9.05881 2.98047 10.2298V22.4518C2.98047 23.6228 3.93847 24.5808 5.10947 24.5808H23.7805C24.951 24.5808 25.909 23.6228 25.909 22.4518V14.9488C25.1965 15.2298 24.4325 15.4453 23.627 15.5728V20.7708Z" fill="white"/>
</g>
</svg>
