<svg width="40" height="40" viewBox="0 0 40 40" fill="none" xmlns="http://www.w3.org/2000/svg">
<mask id="mask0_6807_2649" style="mask-type:luminance" maskUnits="userSpaceOnUse" x="0" y="0" width="40" height="40">
<path d="M0 3.8147e-06H40V40H0V3.8147e-06Z" fill="white"/>
</mask>
<g mask="url(#mask0_6807_2649)">
<path d="M9.48828 18.9517H12.4039C12.7477 18.9517 13.0289 18.6704 13.0289 18.3267V16.3323C13.0289 15.9885 12.7477 15.7073 12.4039 15.7073H9.48828C9.14453 15.7073 8.86328 15.9885 8.86328 16.3323V18.3267C8.86328 18.6704 9.14453 18.9517 9.48828 18.9517Z" fill="#E71316"/>
<path d="M15.5371 18.9517H18.4527C18.7965 18.9517 19.0777 18.6704 19.0777 18.3267V16.3323C19.0777 15.9885 18.7965 15.7073 18.4527 15.7073H15.5371C15.1934 15.7073 14.9121 15.9885 14.9121 16.3323V18.3267C14.9121 18.6704 15.1934 18.9517 15.5371 18.9517Z" fill="#E71316"/>
<path d="M21.5859 18.9517H24.5022C24.8459 18.9517 25.1272 18.6704 25.1272 18.3267V16.3323C25.1272 15.9885 24.8459 15.7073 24.5022 15.7073H21.5859C21.2422 15.7073 20.9609 15.9885 20.9609 16.3323V18.3267C20.9609 18.6704 21.2422 18.9517 21.5859 18.9517Z" fill="#E71316"/>
<path d="M27.5957 18.9517H30.5113C30.8551 18.9517 31.1363 18.6704 31.1363 18.3267V16.3323C31.1363 15.9885 30.8551 15.7073 30.5113 15.7073H27.5957C27.252 15.7073 26.9707 15.9885 26.9707 16.3323V18.3267C26.9707 18.6704 27.252 18.9517 27.5957 18.9517Z" fill="#E71316"/>
<path d="M9.48828 23.979H12.4039C12.7477 23.979 13.0289 23.6978 13.0289 23.354V21.3596C13.0289 21.0159 12.7477 20.7346 12.4039 20.7346H9.48828C9.14453 20.7346 8.86328 21.0159 8.86328 21.3596V23.354C8.86328 23.6978 9.14453 23.979 9.48828 23.979Z" fill="#E71316"/>
<path d="M15.5371 23.979H18.4527C18.7965 23.979 19.0777 23.6978 19.0777 23.354V21.3596C19.0777 21.0159 18.7965 20.7346 18.4527 20.7346H15.5371C15.1934 20.7346 14.9121 21.0159 14.9121 21.3596V23.354C14.9121 23.6978 15.1934 23.979 15.5371 23.979Z" fill="#E71316"/>
<path d="M21.5859 23.979H24.5022C24.8459 23.979 25.1272 23.6978 25.1272 23.354V21.3596C25.1272 21.0159 24.8459 20.7346 24.5022 20.7346H21.5859C21.2422 20.7346 20.9609 21.0159 20.9609 21.3596V23.354C20.9609 23.6978 21.2422 23.979 21.5859 23.979Z" fill="#E71316"/>
<path d="M27.5957 23.979H30.5113C30.8551 23.979 31.1363 23.6978 31.1363 23.354V21.3596C31.1363 21.0159 30.8551 20.7346 30.5113 20.7346H27.5957C27.252 20.7346 26.9707 21.0159 26.9707 21.3596V23.354C26.9707 23.6978 27.252 23.979 27.5957 23.979Z" fill="#E71316"/>
<path d="M9.48828 29.0059H12.4039C12.7477 29.0059 13.0289 28.7246 13.0289 28.3809V26.3865C13.0289 26.0427 12.7477 25.7615 12.4039 25.7615H9.48828C9.14453 25.7615 8.86328 26.0427 8.86328 26.3865V28.3809C8.86328 28.7246 9.14453 29.0059 9.48828 29.0059Z" fill="#E71316"/>
<path d="M15.5371 29.0059H18.4527C18.7965 29.0059 19.0777 28.7246 19.0777 28.3809V26.3865C19.0777 26.0427 18.7965 25.7615 18.4527 25.7615H15.5371C15.1934 25.7615 14.9121 26.0427 14.9121 26.3865V28.3809C14.9121 28.7246 15.1934 29.0059 15.5371 29.0059Z" fill="#E71316"/>
<path d="M21.5859 29.0059H24.5022C24.8459 29.0059 25.1272 28.7246 25.1272 28.3809V26.3865C25.1272 26.0427 24.8459 25.7615 24.5022 25.7615H21.5859C21.2422 25.7615 20.9609 26.0427 20.9609 26.3865V28.3809C20.9609 28.7246 21.2422 29.0059 21.5859 29.0059Z" fill="#E71316"/>
<path d="M27.5957 29.0059H30.5113C30.8551 29.0059 31.1363 28.7246 31.1363 28.3809V26.3865C31.1363 26.0427 30.8551 25.7615 30.5113 25.7615H27.5957C27.252 25.7615 26.9707 26.0427 26.9707 26.3865V28.3809C26.9707 28.7246 27.252 29.0059 27.5957 29.0059Z" fill="#E71316"/>
<path d="M27.7791 8.00366C27.8759 8.00366 27.9741 7.99241 28.0722 7.96866C28.7434 7.80804 29.1566 7.13304 28.9953 6.46179C28.7716 5.52679 28.7716 4.53929 28.9953 3.60429C29.1566 2.93304 28.7434 2.25866 28.0722 2.09741C27.9741 2.07366 27.8759 2.06241 27.7791 2.06241C27.2159 2.06241 26.7028 2.44741 26.5653 3.02054C26.2491 4.33741 26.2491 5.72866 26.5653 7.04554C26.7022 7.61866 27.2147 8.00366 27.7791 8.00366Z" fill="#E71316"/>
<path d="M12.4666 8.00366C12.5634 8.00366 12.6616 7.99241 12.7597 7.96866C13.4309 7.80804 13.8441 7.13304 13.6828 6.46179C13.4591 5.52679 13.4591 4.53929 13.6828 3.60429C13.8441 2.93304 13.4309 2.25866 12.7597 2.09741C12.6616 2.07366 12.5634 2.06241 12.4666 2.06241C11.9028 2.06241 11.3903 2.44741 11.2528 3.02054C10.9366 4.33741 10.9366 5.72866 11.2528 7.04554C11.3897 7.61866 11.9022 8.00366 12.4666 8.00366Z" fill="#E71316"/>
<path d="M33.7069 30.0837C33.7069 30.7731 33.1469 31.3337 32.4569 31.3337H7.54687C6.8575 31.3337 6.29687 30.7731 6.29687 30.0837V13.3725H33.7069V30.0837ZM32.4569 6.17749H30.2125C30.3656 6.82437 30.2594 7.49249 29.9125 8.05999C29.5637 8.62937 29.0137 9.02874 28.3687 9.18374C28.1769 9.22999 27.9794 9.25374 27.78 9.25374C26.6194 9.25374 25.6206 8.46499 25.35 7.33686C25.2581 6.95499 25.1912 6.56749 25.1462 6.17749H14.8994C15.0531 6.82437 14.9469 7.49249 14.5994 8.05999C14.2506 8.62937 13.7006 9.02874 13.0556 9.18374C12.8637 9.22999 12.6656 9.25374 12.4669 9.25374C11.3069 9.25374 10.3075 8.46499 10.0369 7.33686C9.945 6.95499 9.87812 6.56749 9.8325 6.17749H7.54687C5.47875 6.17749 3.79688 7.85937 3.79688 9.92749V30.0837C3.79688 32.1519 5.47875 33.8337 7.54687 33.8337H32.4569C34.525 33.8337 36.2069 32.1519 36.2069 30.0837V9.92749C36.2069 7.85937 34.525 6.17749 32.4569 6.17749Z" fill="#E71316"/>
</g>
</svg>
