<svg width="40" height="40" viewBox="0 0 40 40" fill="none" xmlns="http://www.w3.org/2000/svg">
<g clip-path="url(#clip0_6807_2727)">
<path d="M28.6874 36.8125H28.5624C26.9374 36.5 24.9999 35.75 24.9999 33.75C24.9999 33.25 24.9999 32.9375 24.9999 32.75H14.9999V33.75C14.9999 35.9375 12.7499 36.625 11.3749 36.875C10.8749 36.9375 10.6874 37.25 10.7499 37.5625C10.7499 37.8125 10.9999 38.125 11.4999 38.125H28.7499C29.2499 38.125 29.4374 37.875 29.4999 37.625C29.3749 37.25 29.1874 36.9375 28.6874 36.8125Z" fill="#E71316"/>
<path d="M34.25 7.9375H5.75C4 7.9375 2.625 9.3125 2.625 11.0625V28.25C2.625 30 4 31.375 5.75 31.375H34.25C36 31.375 37.375 30 37.375 28.25V11.0625C37.375 9.375 35.9375 7.9375 34.25 7.9375ZM33.9375 25.9375C33.9375 26.25 33.625 26.5625 33.3125 26.5625H6.6875C6.375 26.5625 6.0625 26.25 6.0625 25.9375V11.9375C6.0625 11.625 6.375 11.3125 6.6875 11.3125H33.3125C33.625 11.3125 33.9375 11.625 33.9375 11.9375V25.9375Z" fill="#E71316"/>
<path d="M30.125 14.5V14.3125C30.0625 14.0625 30 13.9375 29.875 13.8125C29.75 13.6875 29.625 13.5625 29.5625 13.5C29.5 13.4375 29.4375 13.375 29.3125 13.3125C29.1875 13.25 29.0625 13.1875 28.875 13.1875C28.625 13.1875 28.4375 13.25 28.25 13.375C28.0625 13.5 28 13.625 27.875 13.75C27.875 13.75 27.125 14.6875 26.25 15.8125C25.4375 16.875 24.5 18.0625 24 18.75L19.5 16.375C19.25 16.25 19 16.1875 18.6875 16.1875C18.125 16.1875 17.5625 16.4375 17.25 16.9375L14.0625 21.5H10.9375C10.75 21.5 10.5625 21.5625 10.4375 21.625C10.1875 21.75 10.0625 21.9375 10 22.1875C9.9375 22.375 9.9375 22.5625 9.9375 22.75C9.9375 23 9.9375 23.25 10.125 23.5625C10.1875 23.6875 10.3125 23.8125 10.5 23.875C10.625 23.9375 10.8125 24 11 24H14.5625C14.875 24 15.1875 23.875 15.4375 23.75C15.6875 23.5625 15.875 23.375 16.0625 23.125C16.0625 23.125 18.125 20.25 19 18.9375L23.4375 21.25C23.5625 21.3125 23.6875 21.375 23.875 21.4375C24.0625 21.5 24.1875 21.5 24.375 21.5C24.625 21.5 24.875 21.4375 25.0625 21.3125C25.25 21.1875 25.4375 21 25.5625 20.875L29.9375 15.25C30 15.0625 30.125 14.8125 30.125 14.5Z" fill="#E71316"/>
</g>
<defs>
<clipPath id="clip0_6807_2727">
<rect width="40" height="40" fill="white"/>
</clipPath>
</defs>
</svg>
