<svg width="52" height="52" viewBox="0 0 52 52" fill="none" xmlns="http://www.w3.org/2000/svg">
<path d="M0 0H52V52H0V0Z" fill="#E71316"/>
<path d="M33.7341 30.877C33.3442 30.9921 32.7717 31.005 32.1579 30.916C31.4992 30.8205 30.8273 30.6191 30.1669 30.3224C31.3446 30.151 32.2582 30.2038 33.0396 30.4807C33.2247 30.5463 33.5288 30.7217 33.7341 30.877ZM27.1634 29.7967C27.1155 29.8098 27.0683 29.8221 27.0213 29.8351C26.7044 29.9214 26.3961 30.0055 26.099 30.0804L25.6983 30.182C24.8924 30.3859 24.0684 30.5942 23.2546 30.8423C23.5639 30.0965 23.8512 29.3424 24.1326 28.6051C24.3409 28.0594 24.5536 27.5018 24.7736 26.9515C24.8852 27.1358 25.0017 27.3202 25.1229 27.5051C25.6751 28.3461 26.3691 29.1236 27.1634 29.7967ZM25.1134 21.3861C25.1656 22.3064 24.9671 23.1918 24.6758 24.0411C24.317 22.9909 24.1498 21.8311 24.5983 20.8948C24.7134 20.6548 24.8076 20.5265 24.8687 20.4595C24.9631 20.6053 25.0873 20.9314 25.1134 21.3861ZM20.906 33.0443C20.7044 33.405 20.4986 33.7426 20.2877 34.0614C19.7788 34.8284 18.9464 35.6497 18.5187 35.6497C18.4767 35.6497 18.4257 35.6429 18.3513 35.5643C18.3034 35.5141 18.2958 35.4781 18.2981 35.429C18.3125 35.147 18.6862 34.6447 19.2274 34.179C19.7187 33.7566 20.274 33.381 20.906 33.0443ZM35.0957 30.9169C35.0303 29.9775 33.4491 29.3749 33.4335 29.3693C32.8222 29.1526 32.1581 29.0473 31.4034 29.0473C30.5955 29.0473 29.7244 29.1642 28.6058 29.4255C27.6104 28.7199 26.7506 27.8366 26.1082 26.8586C25.8245 26.4266 25.5695 25.9953 25.3471 25.574C25.8899 24.2763 26.3786 22.881 26.2898 21.3183C26.2182 20.0653 25.6531 19.2236 24.8847 19.2236C24.3576 19.2236 23.9038 19.614 23.5347 20.385C22.8764 21.759 23.0495 23.517 24.0488 25.6147C23.6889 26.4601 23.3545 27.3365 23.0308 28.1849C22.6281 29.2398 22.2131 30.3282 21.7455 31.3636C20.4339 31.8826 19.3564 32.5119 18.4584 33.2846C17.8702 33.7898 17.161 34.5622 17.1205 35.3686C17.1008 35.7483 17.231 36.0966 17.4956 36.3756C17.7767 36.6718 18.1299 36.8278 18.5182 36.8283C19.8007 36.8283 21.0351 35.0662 21.2693 34.7127C21.7406 34.0023 22.1817 33.2099 22.6139 32.2959C23.7026 31.9025 24.8627 31.6088 25.9872 31.325L26.3899 31.2226C26.6927 31.1457 27.0073 31.0606 27.33 30.9722C27.6715 30.8799 28.0229 30.7842 28.38 30.6932C29.5347 31.4275 30.7763 31.9065 31.9873 32.0822C33.0073 32.2306 33.9131 32.1446 34.5263 31.8249C35.0781 31.5375 35.1085 31.0941 35.0957 30.9169ZM37.5796 38.9942C37.5796 40.7146 36.0634 40.8206 35.7575 40.8241H16.1951C14.481 40.8241 14.3778 39.2974 14.3745 38.9942L14.3743 13.0051C14.3743 11.2831 15.8933 11.1787 16.1949 11.1753H29.4096L29.4167 11.1822V16.3392C29.4167 17.3741 30.0423 19.3335 32.4119 19.3335H37.5355L37.5795 19.3774L37.5796 38.9942ZM36.365 18.1581H32.4127C30.6991 18.1581 30.5955 16.6398 30.5931 16.3393V12.3625L36.365 18.1581ZM38.755 38.9942V18.8926L30.5931 10.6968V10.6587H30.5541L29.8986 10H16.1951C15.1589 10 13.1992 10.6283 13.1992 13.0057V38.9948C13.1992 40.0342 13.8256 42 16.1951 42H35.7593C36.7954 41.9998 38.755 41.3714 38.755 38.9942Z" fill="white"/>
</svg>

