<svg width="310" height="310" viewBox="0 0 310 310" fill="none" xmlns="http://www.w3.org/2000/svg">
<path d="M155 10C176.989 10 198.691 15.0013 218.462 24.6254C238.234 34.2496 255.557 48.2445 269.122 65.5514C282.688 82.8582 292.139 103.024 296.761 124.522C301.383 146.02 301.055 168.288 295.801 189.641C290.548 210.993 280.507 230.872 266.438 247.771C252.369 264.671 234.641 278.15 214.595 287.187C194.548 296.225 172.709 300.585 150.729 299.937C128.749 299.289 107.204 293.651 87.7249 283.449L98.4889 262.897C114.852 271.467 132.949 276.203 151.412 276.747C169.875 277.291 188.221 273.629 205.059 266.037C221.898 258.446 236.79 247.124 248.608 232.928C260.426 218.732 268.86 202.034 273.273 184.098C277.686 166.162 277.961 147.457 274.079 129.398C270.196 111.34 262.257 94.4009 250.863 79.8632C239.468 65.3254 224.916 53.5697 208.308 45.4854C191.7 37.4011 173.471 33.2 155 33.2V10Z" fill="#262262"/>
<path opacity="0.5" d="M155 3.1C155 1.38792 156.388 -0.0032386 158.1 0.0309996C180.543 0.479901 202.634 5.79874 222.839 15.6341C243.974 25.922 262.492 40.8821 276.993 59.3825C291.494 77.8829 301.596 99.439 306.537 122.42C311.478 145.401 311.127 169.204 305.512 192.03C299.896 214.855 289.163 236.104 274.124 254.169C259.084 272.235 240.133 286.643 218.705 296.304C197.276 305.965 173.93 310.625 150.434 309.933C127.972 309.271 105.935 303.733 85.8458 293.718C84.3136 292.954 83.7292 291.078 84.5236 289.561C85.3179 288.044 87.1901 287.462 88.723 288.225C107.979 297.804 129.095 303.101 150.617 303.735C173.173 304.4 195.585 299.926 216.156 290.652C236.728 281.377 254.921 267.545 269.359 250.203C283.796 232.86 294.1 212.461 299.491 190.548C304.882 168.636 305.219 145.785 300.476 123.723C295.733 101.661 286.034 80.9676 272.113 63.2072C258.193 45.4468 240.415 31.0851 220.126 21.2087C200.766 11.7849 179.603 6.68031 158.1 6.23229C156.388 6.19662 155 4.81208 155 3.1Z" fill="#262262"/>
<path d="M85.4388 282.225C68.7313 273.09 53.9867 260.754 42.0469 245.921C30.107 231.088 21.2056 214.048 15.851 195.775L38.1149 189.251C42.6127 204.6 50.0899 218.914 60.1194 231.373C70.1489 243.833 82.5343 254.196 96.5686 261.869L85.4388 282.225Z" fill="#9BD3DD"/>
<path opacity="0.5" d="M82.1286 288.279C81.3073 289.781 79.4219 290.336 77.9364 289.485C61.1884 279.888 46.372 267.242 34.257 252.191C22.1419 237.14 12.9534 219.964 7.156 201.553C6.6418 199.92 7.58645 198.196 9.22945 197.715C10.8724 197.233 12.5915 198.176 13.107 199.809C18.6746 217.439 27.4822 233.887 39.0867 248.304C50.6912 262.72 64.8774 274.838 80.9114 284.044C82.3961 284.896 82.95 286.777 82.1286 288.279Z" fill="#9BD3DD"/>
<path d="M14.9932 192.724C10.0392 174.338 8.75513 155.156 11.2143 136.274C13.6734 117.392 19.8275 99.1789 29.3254 82.6751L49.4333 94.2471C41.4551 108.11 36.2856 123.409 34.22 139.27C32.1543 155.131 33.233 171.244 37.3943 186.688L14.9932 192.724Z" fill="#F1B434"/>
<path opacity="0.5" d="M8.33081 194.519C6.67768 194.965 4.97327 193.986 4.561 192.324C-0.0871905 173.59 -1.1972 154.142 1.298 134.983C3.79319 115.823 9.84721 97.3088 19.1388 80.3894C19.9629 78.8887 21.8611 78.3795 23.345 79.2334C24.8289 80.0874 25.3365 81.9812 24.5136 83.4825C15.6274 99.6957 9.83612 117.432 7.44607 135.783C5.05603 154.135 6.11156 172.763 10.5487 190.711C10.9596 192.373 9.98393 194.074 8.33081 194.519Z" fill="#F1B434"/>
<path d="M30.8302 80.1211C43.5288 59.0632 61.3743 41.5808 82.6887 29.3176C104.003 17.0544 128.086 10.4132 152.673 10.0187L153.046 33.2157C132.392 33.5471 112.163 39.1257 94.2585 49.4268C76.3544 59.7279 61.3642 74.4131 50.6973 92.1017L30.8302 80.1211Z" fill="#EA7600"/>
<path opacity="0.5" d="M24.9214 76.5579C23.4553 75.6737 22.9809 73.7665 23.8942 72.3183C37.3478 50.9852 55.8137 33.2431 77.7017 20.6498C99.5897 8.05655 124.209 1.00958 149.414 0.100692C151.125 0.0389936 152.535 1.40769 152.563 3.11955C152.59 4.83142 151.224 6.23806 149.513 6.30118C125.36 7.19231 101.77 13.9549 80.7936 26.0238C59.817 38.0927 42.1144 55.0876 29.2046 75.5207C28.2901 76.9681 26.3875 77.442 24.9214 76.5579Z" fill="#EA7600"/>
</svg>
