<svg width="32" height="32" viewBox="0 0 32 32" fill="none" xmlns="http://www.w3.org/2000/svg">
<g clip-path="url(#clip0_3781_12124)">
<mask id="mask0_3781_12124" style="mask-type:luminance" maskUnits="userSpaceOnUse" x="0" y="0" width="32" height="32">
<path d="M0 1.90735e-06H32V32H0V1.90735e-06Z" fill="white"/>
</mask>
<g mask="url(#mask0_3781_12124)">
<path d="M3.17409 21.1988H28.5421V5.48925H3.17409V21.1988ZM30.4701 4.49175V22.1953C30.4701 22.8247 29.9586 23.3377 29.3286 23.3377H2.38809C1.75909 23.3377 1.24609 22.8247 1.24609 22.1953V4.49175C1.24609 3.86325 1.75909 3.35075 2.38809 3.35075H29.3286C29.9586 3.35075 30.4701 3.86325 30.4701 4.49175ZM19.4091 25.2163C19.5851 26.0123 19.9171 26.8263 20.4706 27.3168C20.8411 27.6458 21.3011 27.8537 21.9441 27.8547V28.4688H9.77109V27.8547C10.4156 27.8537 10.8746 27.6457 11.2451 27.3183C11.6136 26.9898 11.8861 26.5223 12.0771 26.0058C12.2691 25.4943 12.3776 24.9393 12.4376 24.4508H19.2786C19.3091 24.6938 19.3506 24.9523 19.4091 25.2163Z" fill="white"/>
<path d="M16.0668 16.8785C15.7198 16.7605 15.3928 16.53 14.9853 16.1095C14.7278 15.837 14.6118 15.6965 14.3843 15.3495L14.1563 15.0575L13.9698 15.393C13.6118 16.0365 13.1398 16.758 12.8643 17.164L12.7578 17.3115L12.8738 17.45C13.0433 17.6565 13.3213 17.9135 13.7163 18.2655C14.2363 18.716 14.8518 19.156 15.8523 19.316C16.0168 19.342 16.1593 19.3545 16.2858 19.3545C16.6583 19.3545 17.1183 19.217 17.1618 18.566C17.1658 18.498 17.1743 18.0625 17.1743 17.9705C17.1743 17.3705 16.8193 17.1405 16.0668 16.8785Z" fill="white"/>
<path d="M13.3724 14.6526C13.6349 14.1846 13.8854 13.7416 14.1434 13.3401L14.1979 13.2606C14.3249 13.0676 14.4569 12.8756 14.6314 12.6431C14.7189 12.5331 15.0304 12.1051 15.0304 12.1026C15.4044 11.7241 15.7149 11.5686 16.0704 11.4501C16.8349 11.1831 17.1734 10.9641 17.1734 10.3591C17.1734 10.2516 17.1649 9.83256 17.1624 9.77156C17.1269 9.23956 16.8309 8.96906 16.2854 8.96906C16.1609 8.96906 16.0194 8.98706 15.8594 9.01456C14.9399 9.15256 13.9214 9.69406 13.2589 10.3886C13.0979 10.5636 12.4989 11.2931 12.4704 11.3311C11.9884 11.9606 11.6119 12.6431 11.2489 13.3046L10.8719 13.9776C10.6609 14.3491 10.4619 14.7016 10.2504 15.0356C9.83687 15.7121 9.44437 16.2081 9.08037 16.5066C8.70487 16.8111 8.41637 16.9291 8.01887 16.9341C7.49287 16.9316 7.09837 16.7131 6.56487 16.1301C6.31487 15.8551 6.11687 15.5661 5.99487 15.3751L5.78537 15.0471L5.54087 15.4846C5.26737 15.9726 4.45937 17.1966 4.45087 17.2086L4.35938 17.3446L4.45937 17.4791C4.54487 17.5911 4.79237 17.8931 5.22287 18.2491C6.01387 18.9216 6.99787 19.2891 7.99537 19.2891H8.03337C9.66687 19.2891 10.7979 18.3796 11.4549 17.6191C12.2084 16.7581 12.7874 15.7121 13.2969 14.7921L13.3724 14.6526Z" fill="white"/>
<path d="M5.78022 13.299C6.19922 12.6195 6.59472 12.1225 6.94822 11.8275C7.32472 11.52 7.61622 11.4045 8.01672 11.403C8.54672 11.4045 8.94072 11.6235 9.46172 12.201C9.70622 12.4705 9.89572 12.747 10.0632 13.004L10.2942 13.2915L10.5402 12.851C10.8317 12.3305 11.1927 11.6805 11.5552 11.157L11.6607 10.9755L11.5677 10.851C11.3697 10.5895 11.1362 10.3545 10.8102 10.085C10.0217 9.41905 9.04322 9.04805 8.00472 9.04805C6.37022 9.04805 5.23772 9.95505 4.57422 10.7145C3.83072 11.563 3.22522 12.6515 2.69922 13.597L2.70022 17.9355C2.80322 17.8375 2.89872 17.741 2.98622 17.6455C3.85072 16.724 4.45772 15.6295 5.06372 14.532C5.30522 14.097 5.53872 13.684 5.78022 13.299Z" fill="white"/>
<path d="M20.2171 13.6671C20.2171 14.7131 19.3696 15.5586 18.3256 15.5586C17.2806 15.5586 16.4336 14.7131 16.4336 13.6671C16.4336 12.6221 17.2806 11.7751 18.3256 11.7751C19.3696 11.7751 20.2171 12.6221 20.2171 13.6671Z" fill="white"/>
<path d="M28.0498 9.9724C28.0498 10.8759 27.3173 11.6084 26.4143 11.6084C25.5098 11.6084 24.7773 10.8759 24.7773 9.9724C24.7773 9.0684 25.5098 8.3364 26.4143 8.3364C27.3173 8.3364 28.0498 9.0684 28.0498 9.9724Z" fill="white"/>
<path d="M24.0104 11.7746C24.0104 12.5651 23.3694 13.2051 22.5794 13.2051C21.7884 13.2051 21.1484 12.5651 21.1484 11.7746C21.1484 10.9851 21.7884 10.3441 22.5794 10.3441C23.3694 10.3441 24.0104 10.9851 24.0104 11.7746Z" fill="white"/>
<path d="M24.668 19.134C24.668 18.2305 25.4015 17.4985 26.3045 17.4985C27.208 17.4985 27.9405 18.2305 27.9405 19.134C27.9405 20.0385 27.208 20.7705 26.3045 20.7705C25.4015 20.7705 24.668 20.0385 24.668 19.134Z" fill="white"/>
<path d="M17.625 17.1902C17.625 16.8057 17.9365 16.4937 18.3215 16.4937C18.705 16.4937 19.0175 16.8057 19.0175 17.1902C19.0175 17.5742 18.705 17.8867 18.3215 17.8867C17.9365 17.8867 17.625 17.5742 17.625 17.1902Z" fill="white"/>
<path d="M20.0781 17.3324C20.0781 16.2874 20.9246 15.4399 21.9696 15.4399C23.0146 15.4399 23.8616 16.2874 23.8616 17.3324C23.8616 18.3769 23.0146 19.2239 21.9696 19.2239C20.9246 19.2239 20.0781 18.3769 20.0781 17.3324Z" fill="white"/>
</g>
</g>
<defs>
<clipPath id="clip0_3781_12124">
<rect width="32" height="32" fill="white"/>
</clipPath>
</defs>
</svg>
